<?xml version="1.0" encoding="utf-8"?>
<!-- Generator: Adobe Illustrator 24.3.0, SVG Export Plug-In . SVG Version: 6.00 Build 0)  -->
<svg version="1.1" id="Layer_1" xmlns="http://www.w3.org/2000/svg" xmlns:xlink="http://www.w3.org/1999/xlink" x="0px" y="0px"
	 viewBox="0 0 288 288" style="enable-background:new 0 0 288 288;" xml:space="preserve">
<style type="text/css">
	.st0{fill:#39C0F6;}
</style>
<path class="st0" d="M56.23,279.68c-3.38-1.69-4.14-4.51-4.14-8.12c0.07-37.74,0.02-75.48,0-113.23c0-1.14,0-2.28,0-3.75
	c1.42,0,2.63,0,3.84,0c50.69,0.02,101.38,0.05,152.07,0.06c14.84,0,26.83-8.29,31.05-21.37c6.26-19.43-7.9-39.6-28.32-40.08
	c-11.09-0.26-22.19-0.06-33.29-0.09c-4.79-0.01-6.51-1.77-6.52-6.63c-0.01-6.22-0.03-12.43,0-18.65c0.02-4.32,2.08-6.43,6.34-6.44
	c11.1-0.03,22.19-0.11,33.29,0.01c30.33,0.35,56.08,22.63,60.77,52.46c0.37,2.35,0.77,4.69,1.16,7.03c0,2.13,0,4.26,0,6.39
	c-0.21,0.76-0.53,1.51-0.6,2.28c-1.41,15.07-7.57,27.89-18.27,38.55c-0.73,0.73-1.88,1.03-2.83,1.53c1.01,1.09,1.05,1.28,1.16,1.4
	c0.55,0.58,1.12,1.14,1.68,1.7c7.92,7.84,13.45,17.12,16.32,27.89c1.13,4.25,1.71,8.65,2.53,12.98c0,2.49,0,4.97,0,7.46
	c-0.37,2.07-0.78,4.13-1.11,6.21c-3.91,24.31-22.29,44.38-46.1,50.2c-3.75,0.92-7.58,1.48-11.38,2.21c-29.83,0-59.66,0-89.48,0
	c-2.64-1.35-4.16-3.28-4.15-6.47c0.06-20.96,0.02-41.91,0.04-62.87c0-4.14,2.07-6.16,6.27-6.17c6.21-0.03,12.43-0.02,18.64,0
	c4.89,0.01,6.74,1.88,6.74,6.78c0.01,11.28,0,22.55,0,33.83c0,0.94,0,1.89,0,2.86c0.68,0.1,1.02,0.19,1.36,0.19
	c18.73,0.01,37.47,0.37,56.18-0.07c20.97-0.49,34.96-18.8,30.01-38.52c-3.48-13.86-15.77-22.9-31.42-22.9
	c-40.39-0.01-80.77,0.04-121.16,0.07c-0.95,0-1.9,0.09-3.15,0.16c0,1.18,0,2.13,0,3.08c0,29.12-0.01,58.25,0,87.37
	c0,0.88,0.09,1.77,0.14,2.65C74.7,279.68,65.46,279.68,56.23,279.68z"/>
<path class="st0" d="M151.93,98.78c0,10.21,0.01,20.42,0,30.62c0,4.87-1.9,6.76-6.77,6.77c-6.12,0.01-12.24,0.03-18.37,0.02
	c-4.49,0-6.47-1.98-6.47-6.51c0.01-20.5,0.03-41.01,0.06-61.51c0.01-4.63,2.05-6.69,6.62-6.72c6.12-0.03,12.24-0.03,18.37-0.03
	c4.47,0,6.54,2.03,6.55,6.47c0.02,10.3,0.01,20.59,0.01,30.89C151.92,98.78,151.92,98.78,151.93,98.78z"/>
<path class="st0" d="M134.83,20.97c-1.72-0.16-3.11-0.39-4.49-0.37c-0.43,0-0.86,0.65-1.29,1c0.44,0.44,0.82,1.16,1.34,1.29
	c4.28,1.05,4.45,1.22,4.45,5.66c0,3.71,0,7.43,0,11.07c-0.36,0.13-0.52,0.23-0.68,0.23c-1.14-0.03-2.27-0.09-3.41-0.13
	c0.76,0.79,1.42,1.71,2.29,2.36c1.89,1.43,2.48,4.3,1.29,6.99c-0.96,2.15-3.18,3.17-5.49,2.51c-2.78-0.78-3.55-2.75-2.68-5.51
	c0.53-1.67,0.42-3.55,0.46-5.34c0.01-0.28-0.87-0.9-1.07-0.8c-0.47,0.23-1.14,0.87-1.07,1.21c0.4,1.85,0.64,4-1.4,4.5
	c-1.38,0.34-3.41-0.59-4.68-1.56c-1.86-1.42-1.94-3.65-1.15-5.83c0.06-0.16,0.15-0.33,0.26-0.46c1.32-1.49,0.96-2.41-0.68-3.56
	c-3.01-2.09-3.52-5.81-1.53-8.67c1.97-2.82,4.46-2.71,6.35,0.16c0.42,0.65,1.34,0.97,2.04,1.44c-0.04-0.9,0.25-2.03-0.18-2.66
	c-0.77-1.12-1.82-2.28-3.03-2.82c-2.09-0.93-2.2-2.37-1.13-3.78c1.01-1.33,2.44-2.58,3.95-3.2c1.28-0.53,2.1-0.87,2.35-2.36
	c0.44-2.59,2.5-4.2,4.79-4c2.33,0.2,4.21,2.04,4.35,4.61C134.94,15.58,134.83,18.24,134.83,20.97z M125.04,35.78
	c1.68-1.23,3.3-2.31,4.77-3.56c0.32-0.27,0.1-1.18,0.13-1.79c-0.61,0.13-1.28,0.14-1.83,0.4c-1.21,0.58-2.38,1.27-3.54,1.95
	c-0.65,0.38-1.25,0.83-1.88,1.25C123.33,34.5,123.96,34.98,125.04,35.78z M134.28,15.47c-1.51-1.15-2.54-2.04-3.68-2.71
	c-0.21-0.12-0.92,0.63-1.41,0.97c0.99,0.92,1.94,1.89,3.02,2.69C132.42,16.57,133.15,16.01,134.28,15.47z"/>
<path class="st0" d="M137.17,39.98c0-4.64,0-8.99,0-13.33c0-2.22,1.1-3.37,3.31-3.75c0.83-0.14,1.55-0.91,2.32-1.4
	c-0.9-0.32-1.79-0.85-2.71-0.91c-0.83-0.06-1.69,0.39-2.73,0.66c0-3.23-0.22-6.46,0.08-9.63c0.21-2.26,2.2-3.22,4.27-3.23
	c2.09-0.01,3.95,1.01,4.31,3.22c0.32,1.98,1.18,2.69,3.08,3.27c1.4,0.43,2.64,1.96,3.52,3.29c0.85,1.28,0.47,2.44-1.12,3.46
	c-1.52,0.98-2.58,2.7-3.73,4.17c-0.17,0.22,0.23,1.28,0.41,1.3c0.52,0.04,1.27-0.09,1.58-0.46c2.94-3.46,3.82-3.85,5.71-2.32
	c2.37,1.91,3.2,6.26,0.93,8.33c-2.43,2.22-3.02,3.85-1.54,6.98c1.3,2.75-2.35,6.65-5.43,6.3c-2.18-0.25-2.39-1.96-2.43-3.78
	c-0.01-0.77-0.47-1.54-0.72-2.31c-0.49,0.73-1.35,1.43-1.39,2.18c-0.07,1.27,0.17,2.64,0.64,3.83c1.03,2.62,0.39,4.61-2.05,5.56
	c-2.38,0.93-5.21-0.2-6.01-2.39c-1.13-3.12-0.18-5.74,2.63-7.63c0.47-0.31,0.63-1.08,0.93-1.64c-0.53-0.18-1.08-0.54-1.6-0.51
	C138.75,39.31,138.1,39.67,137.17,39.98z M146.85,35.86c1.07-0.9,1.67-1.4,2.27-1.91c-0.56-0.39-1.09-0.83-1.68-1.17
	c-1.24-0.71-2.49-1.42-3.79-2.01c-0.55-0.25-1.23-0.21-1.85-0.31c0.01,0.54-0.21,1.36,0.06,1.59
	C143.42,33.37,145.08,34.53,146.85,35.86z M143.37,13.79c-1.07-0.62-1.77-1.22-1.94-1.09c-1.21,0.88-2.31,1.91-3.45,2.89
	c0.37,0.32,0.93,0.99,1.08,0.9C140.38,15.77,141.61,14.92,143.37,13.79z"/>
<path class="st0" d="M193.18,112.03c6.18,0.06,11.59,5.56,11.47,11.67c-0.12,6.12-5.39,11.35-11.46,11.41
	c-6.17,0.06-11.58-5.33-11.59-11.53C181.58,117.41,187.04,111.97,193.18,112.03z"/>
<path class="st0" d="M27.64,187.46c0-3.81-0.03-7.62,0.01-11.42c0.03-2.81,0.66-3.29,4.12-3.28c3.4,0,4.03,0.5,4.04,3.36
	c0.02,7.61,0.02,15.23-0.01,22.84c-0.01,2.8-0.66,3.29-4.12,3.29c-3.39,0-4.02-0.49-4.04-3.37
	C27.62,195.08,27.64,191.27,27.64,187.46z"/>
<path class="st0" d="M32.58,258.64c-0.01,2.67-2.63,5.32-5.31,5.37c-2.65,0.05-5.34-2.55-5.43-5.24c-0.09-2.76,2.68-5.55,5.43-5.5
	C29.96,253.33,32.58,255.98,32.58,258.64z"/>
<path class="st0" d="M204.69,220.99c0.04,6.22-5.25,11.59-11.49,11.65c-6.19,0.06-11.58-5.26-11.64-11.49
	c-0.06-6.19,5.26-11.59,11.49-11.65C199.24,209.44,204.65,214.78,204.69,220.99z"/>
</svg>
